<?xml version="1.0" encoding="utf-8"?>
<!-- Generator: Adobe Illustrator 16.0.5, SVG Export Plug-In . SVG Version: 6.00 Build 0)  -->
<!DOCTYPE svg PUBLIC "-//W3C//DTD SVG 1.1//EN" "http://www.w3.org/Graphics/SVG/1.1/DTD/svg11.dtd">
<svg version="1.1" id="Layer_1" xmlns="http://www.w3.org/2000/svg" xmlns:xlink="http://www.w3.org/1999/xlink" x="0px" y="0px"
	 width="1024px" height="768px" viewBox="0 0 1024 768" enable-background="new 0 0 1024 768" xml:space="preserve">
<path fill="#51687C" d="M928.095,93.62c-46.331-20.208-100.275,0.959-120.48,47.274l-125.39,227.438l-34.562-101.29
	c-11.116-64.519-67.337-113.615-135.033-113.615c-68.514,0-125.311,50.318-135.428,116.016l-34.198,100.279l-126.14-228.828
	C196.641,94.579,142.715,73.413,96.355,93.62C50.045,113.837,28.876,167.789,49.1,214.1c2.287,5.242,5.024,10.143,8.115,14.718
	l167.336,303.526l-0.023-0.015l0.709,1.262l39.23,71.159l12.229,20.36c0.317,0.778,0.614,1.564,0.954,2.338
	c20.227,46.304,74.16,67.506,120.492,47.301c20.353-8.895,35.846-24.309,45.108-42.722l4.268-6.503
	c0.018-0.029,0.039-0.053,0.056-0.08l-0.001-0.002l65.057-99.167l0.433-0.677l68.063,106.306l0.008-0.008
	c9.258,18.471,24.774,33.937,45.186,42.853c45.666,19.921,98.742-0.432,119.609-45.39l-0.146,0.374l2.387-4.299l11.827-20.685
	l207.294-376.013c3.07-4.552,5.794-9.424,8.074-14.638C995.588,167.789,974.43,113.837,928.095,93.62z"/>
<path fill="#51687C" d="M649.676,289.611c0-75.674-61.35-137.033-137.031-137.033c-75.657,0-137.033,61.358-137.033,137.033
	c0,75.654,61.376,137.029,137.033,137.029C588.326,426.641,649.676,365.266,649.676,289.611z"/>
<path fill="#5F7CA0" d="M216.864,140.894c20.218,46.312-0.943,100.258-47.274,120.5c-46.341,20.2-100.272-0.944-120.49-47.293
	c-20.224-46.311,0.945-100.263,47.255-120.48C142.715,73.413,196.641,94.579,216.864,140.894z"/>
<polygon fill="#51687C" points="512.63,310.191 391.283,228.159 280.313,553.545 442.44,633.266 512.63,526.276 412.615,370.474 "/>
<polygon fill="#51687C" points="744.95,552.157 633.93,226.809 512.63,308.831 612.657,369.115 512.63,524.926 581.127,631.905 "/>
<polygon fill="#495968" points="512.63,308.831 410.79,369.09 512.63,526.276 612.657,369.115 "/>
<path fill="#5C7691" d="M445.398,554.233c20.228,46.331-0.951,100.277-47.256,120.517c-46.332,20.205-100.266-0.997-120.492-47.301
	c-20.232-46.331,0.928-100.273,47.264-120.482C371.249,486.764,425.198,507.939,445.398,554.233z"/>
<line fill="none" x1="512.63" y1="290.459" x2="422.876" y2="453.99"/>
<line fill="none" x1="512.63" y1="290.459" x2="412.615" y2="211.747"/>
<polygon fill="#5F7CA0" points="216.864,140.894 49.1,214.1 264.467,604.751 346.742,376.501 "/>
<polygon fill="#5C7691" points="443.61,552.157 342.275,372.225 259.592,594.668 276.898,625.445 "/>
<path fill="#5F7CA0" d="M807.614,140.894c-20.241,46.312,0.934,100.258,47.25,120.5c46.326,20.2,100.253-0.944,120.502-47.293
	c20.222-46.311-0.937-100.263-47.271-120.48C881.764,73.413,827.819,94.579,807.614,140.894z"/>
<defs>
	<filter id="Adobe_OpacityMaskFilter" filterUnits="userSpaceOnUse" x="224.528" y="532.33" width="223.046" height="150.07">
		<feFlood  style="flood-color:white;flood-opacity:1" result="back"/>
		<feBlend  in="SourceGraphic" in2="back" mode="normal"/>
	</filter>
</defs>
<mask maskUnits="userSpaceOnUse" x="224.528" y="532.33" width="223.046" height="150.07" id="SVGID_1_">
	<g filter="url(#Adobe_OpacityMaskFilter)">
		<linearGradient id="SVGID_2_" gradientUnits="userSpaceOnUse" x1="304.1191" y1="667.3408" x2="338.2004" y2="573.7033">
			<stop  offset="0" style="stop-color:#FFFFFF"/>
			<stop  offset="1" style="stop-color:#000000"/>
		</linearGradient>
		<path fill="url(#SVGID_2_)" d="M276.857,624.963c0.313,0.827,0.432,1.69,0.793,2.486c20.227,46.304,74.16,67.506,120.492,47.301
			c16.642-7.304,40.553-35.261,49.955-49.305l-62.742-18.1l-67.982-16.467l-92.845-58.549l0,0l51.314,93.115L276.857,624.963z"/>
	</g>
</mask>
<path mask="url(#SVGID_1_)" fill="#506371" d="M276.857,624.963c0.313,0.827,0.432,1.69,0.793,2.486
	c20.227,46.304,74.16,67.506,120.492,47.301c16.642-7.304,40.031-35.261,49.432-49.305l-62.219-18.1l-67.982-16.467l-92.845-58.549
	l0,0l52.609,93.53L276.857,624.963z"/>
<path fill="#5C7691" d="M579.036,554.233c-20.205,46.331,0.956,100.277,47.284,120.517c46.318,20.205,100.275-0.997,120.502-47.301
	c20.205-46.331-0.953-100.273-47.267-120.482C653.19,486.764,599.282,507.939,579.036,554.233z"/>
<polygon fill="#5F7CA0" points="807.614,140.894 975.366,214.1 759.998,604.751 677.718,376.501 "/>
<polygon fill="#5C7691" points="580.839,552.157 682.72,368.069 765,596.318 748.171,625.445 "/>
<defs>
	<filter id="Adobe_OpacityMaskFilter_1_" filterUnits="userSpaceOnUse" x="577.171" y="532.33" width="222.742" height="150.07">
		<feFlood  style="flood-color:white;flood-opacity:1" result="back"/>
		<feBlend  in="SourceGraphic" in2="back" mode="normal"/>
	</filter>
</defs>
<mask maskUnits="userSpaceOnUse" x="577.171" y="532.33" width="222.742" height="150.07" id="SVGID_3_">
	<g filter="url(#Adobe_OpacityMaskFilter_1_)">
		
			<linearGradient id="SVGID_4_" gradientUnits="userSpaceOnUse" x1="237.3877" y1="667.3418" x2="271.4713" y2="573.6979" gradientTransform="matrix(-1 0 0 1 957.7256 0)">
			<stop  offset="0" style="stop-color:#FFFFFF"/>
			<stop  offset="1" style="stop-color:#000000"/>
		</linearGradient>
		<path fill="url(#SVGID_4_)" d="M747.615,624.963c-0.347,0.827-0.448,1.69-0.793,2.486
			c-20.227,46.304-74.184,67.506-120.502,47.301c-16.661-7.304-40.57-35.261-49.947-49.305l62.715-18.1l67.975-16.467l92.851-58.549
			l0,0l-51.311,93.115L747.615,624.963z"/>
	</g>
</mask>
<path mask="url(#SVGID_3_)" fill="#506371" d="M747.615,624.963c-0.347,0.827-0.448,1.69-0.793,2.486
	c-20.227,46.304-74.184,67.506-120.502,47.301c-16.661-7.304-39.774-35.261-49.149-49.305l61.917-18.1l67.975-16.467l92.851-58.549
	l0,0l-54.129,97.404L747.615,624.963z"/>
<circle fill="#FFFFFF" cx="511.723" cy="289.609" r="127.789"/>
<g>
	<path fill="#5F7CA0" d="M528.9,290.512v-16.398l10.574-19.727l32.379-16.898l7.52,7.76l16.416-1.423l8.449-6.337h-12.66
		l-15.516-13.942l3.311,10.425l-12.795-6.338l-9.518,2.114l-2.791,11.269l-11.281,6.723l-4.24-19.397l11.967-1.422l-7.02-6.332
		l7.742-6.342l4.932-5.728l6.326-4.129l-2.809-11.267l-7.051-5.629l4.225,13.378l-4.934,7.646l-7.033-10.466v-14.913l9.176-0.924
		l5.617-4.58l-7.76-6.329l5.141-1.913l30.797,12.822l16.174,15.131l16.746,18.682l5.428,21.297l-6.654,0.164l16.105,10.25
		l-1.156,17.908l-3.705,12.686c0,0-14.797-25.35-14.797-23.237c0,2.111,10.967,26.754,10.967,26.754l9.33-4.228v19.02l-6.188,16.213
		l-3.143,21.914l-6.605,15.072l-7.844,14.045l-10.07,14.586h-14.588l1.396-46.607l-3.518-16.036l-11.984-10.548l-20.414,10.548
		l-21.838-10.548L528.9,290.512z"/>
	<polygon fill="#5F7CA0" points="466.666,190.309 470.434,198.052 470.434,208.518 457.072,213.553 457.072,223.529 
		435.949,226.229 428.189,235.377 421.934,239.591 416.232,255.805 411.705,242.419 401.438,243.825 398.617,261.441 
		402.844,273.406 405.662,290.512 421.934,286.971 437.355,298.059 453.545,311.427 461.549,324.818 485.23,335.377 
		480.729,351.754 477.49,369.061 461.549,372.729 454.248,388.908 453.545,400.889 453.545,400.889 445.25,399.543 433.836,389.594 
		421.934,355.096 403.055,325.078 401.438,295.945 395.607,269.174 386.943,257.206 393.926,232.504 400.006,214.293 
		421.934,198.717 444.182,176.332 473.391,165.392 461.549,181.154 466.666,185.385 	"/>
	<polygon opacity="0.15" fill="#5F7CA0" points="393.926,232.504 401.438,243.825 386.943,257.206 	"/>
	<polygon opacity="0.21" fill="#5F7CA0" points="401.438,243.825 400.006,214.293 393.926,232.504 	"/>
	<polygon opacity="0.15" fill="#5F7CA0" points="400.006,214.293 421.934,198.717 427.664,217.686 	"/>
	<polygon opacity="0.18" fill="#5F7CA0" points="400.006,214.293 427.664,217.686 411.705,242.419 	"/>
	<polygon opacity="0.1" fill="#5F7CA0" points="421.934,198.717 444.182,176.332 436.08,200.181 427.664,217.686 	"/>
	<polygon opacity="0.02" fill="#5F7CA0" points="444.182,176.332 461.549,181.154 454.57,193.122 	"/>
	<polygon opacity="0.07" fill="#5F7CA0" points="454.57,193.122 436.08,200.181 444.182,176.332 	"/>
	<polygon opacity="0.13" fill="#5F7CA0" points="436.08,200.181 457.072,213.553 454.57,193.122 	"/>
	<polygon opacity="0.07" fill="#5F7CA0" points="454.57,193.122 466.666,190.309 466.666,185.385 461.549,181.154 	"/>
	<polygon opacity="0.02" fill="#5F7CA0" points="454.57,193.122 470.434,208.518 470.434,198.052 466.666,190.309 	"/>
	<polygon opacity="0.15" fill="#5F7CA0" points="454.57,193.122 457.072,213.553 470.434,208.518 	"/>
	<polygon opacity="0.05" fill="#5F7CA0" points="461.549,181.154 473.391,165.392 444.182,176.332 	"/>
	<polygon opacity="0.08" fill="#5F7CA0" points="436.08,200.181 435.949,226.229 457.072,213.553 	"/>
	<polygon opacity="0.05" fill="#5F7CA0" points="435.949,226.229 457.072,223.529 457.072,213.553 	"/>
	<polygon opacity="0.14" fill="#5F7CA0" points="427.664,217.686 435.949,226.229 436.08,200.181 	"/>
	<polygon opacity="0.08" fill="#5F7CA0" points="411.705,242.419 421.934,239.591 430.629,232.504 427.664,217.686 	"/>
	<polygon opacity="0.07" fill="#5F7CA0" points="430.629,232.504 435.949,226.229 427.664,217.686 	"/>
	<polygon opacity="0.21" fill="#5F7CA0" points="401.438,243.825 400.006,214.293 411.705,242.419 	"/>
	<polygon opacity="0.14" fill="#5F7CA0" points="411.705,242.419 416.232,255.805 421.934,239.591 	"/>
	<polygon opacity="0.21" fill="#5F7CA0" points="386.943,257.206 395.607,269.174 398.617,261.441 401.438,243.825 	"/>
	<polygon opacity="0.28" fill="#5F7CA0" points="395.607,269.174 401.438,295.945 405.662,290.512 	"/>
	<polygon opacity="0.21" fill="#5F7CA0" points="405.662,290.512 402.844,273.406 398.617,261.441 395.607,269.174 	"/>
	<polygon opacity="0.15" fill="#5F7CA0" points="401.438,295.945 411.705,313.887 453.545,311.427 421.934,286.971 405.662,290.512 
			"/>
	<polygon opacity="0.28" fill="#5F7CA0" points="411.705,313.887 403.055,325.078 401.438,295.945 	"/>
	<polygon fill="#5F7CA0" points="492.283,200.871 500.721,189.605 513.193,183.139 513.193,177.635 516.227,171.306 
		506.363,165.392 493.68,171.988 493.68,180.447 485.23,193.122 492.283,200.871 	"/>
	<polygon opacity="0.15" fill="#5F7CA0" points="411.705,313.887 421.934,355.096 403.055,325.078 	"/>
	<polygon opacity="0.12" fill="#5F7CA0" points="411.705,313.887 452.029,342.416 485.23,335.377 461.549,324.818 453.545,311.427 	
		"/>
	<polygon opacity="0.21" fill="#5F7CA0" points="452.029,342.416 427.5,371.188 421.152,353.875 411.705,313.887 	"/>
	<polygon opacity="0.15" fill="#5F7CA0" points="452.029,342.416 477.49,369.061 485.23,335.377 	"/>
	<polygon opacity="0.23" fill="#5F7CA0" points="452.029,342.416 477.49,369.061 461.549,372.729 437.701,359.23 	"/>
	<polygon opacity="0.35" fill="#5F7CA0" points="437.701,359.23 445.318,399.613 433.836,389.594 	"/>
	<polygon opacity="0.27" fill="#5F7CA0" points="427.5,371.188 433.836,389.594 437.701,359.23 	"/>
	<polygon opacity="0.3" fill="#5F7CA0" points="437.701,359.23 454.248,388.908 461.549,372.729 	"/>
	<polygon opacity="0.3" fill="#5F7CA0" points="454.248,388.908 445.318,399.613 437.701,359.23 	"/>
	<polygon opacity="0.24" fill="#5F7CA0" points="454.248,388.908 453.545,400.889 445.318,399.613 	"/>
	<polygon opacity="0.07" fill="#5F7CA0" points="492.283,200.871 493.68,180.447 485.23,193.122 	"/>
	<polygon opacity="0.1" fill="#5F7CA0" points="493.68,180.447 513.193,183.139 500.721,189.605 492.283,200.871 	"/>
	<polygon opacity="0.05" fill="#5F7CA0" points="493.68,180.447 506.363,165.392 493.68,171.988 	"/>
	<polygon opacity="0.02" fill="#5F7CA0" points="493.68,180.447 506.363,165.392 516.227,171.306 513.193,177.635 513.193,183.139 	
		"/>
	<polygon opacity="0.12" fill="#5F7CA0" points="539.475,254.387 552.164,286.953 531.707,305.279 528.9,290.512 528.9,274.113 	"/>
	<polygon opacity="0.18" fill="#5F7CA0" points="552.164,286.953 573.959,305.279 553.545,315.827 531.707,305.279 	"/>
	<polygon opacity="0.07" fill="#5F7CA0" points="539.475,254.387 571.854,237.488 573.959,257.206 552.164,286.953 	"/>
	<polygon opacity="0.14" fill="#5F7CA0" points="552.164,286.953 582.719,275.968 573.959,257.206 	"/>
	<polygon opacity="0.21" fill="#5F7CA0" points="573.959,305.279 582.719,275.968 552.164,286.953 	"/>
	<polygon opacity="0.21" fill="#5F7CA0" points="582.719,275.968 598.268,300.42 573.959,305.279 	"/>
	<polygon opacity="0.12" fill="#5F7CA0" points="598.268,300.42 585.943,315.827 573.959,305.279 	"/>
	<polygon opacity="0.18" fill="#5F7CA0" points="585.943,315.827 589.461,331.863 602.477,319.162 598.268,300.42 	"/>
	<polygon opacity="0.31" fill="#5F7CA0" points="602.477,319.162 627.172,334.768 588.721,352.211 589.461,331.863 	"/>
	<polygon opacity="0.35" fill="#5F7CA0" points="627.172,334.768 621.172,348.795 612.723,363.885 606.512,372.729 588.721,352.211 
			"/>
	<polygon opacity="0.31" fill="#5F7CA0" points="606.512,372.729 588.064,378.471 588.721,352.211 	"/>
	<polygon opacity="0.16" fill="#5F7CA0" points="573.959,257.206 579.373,245.248 571.854,237.488 	"/>
	<polygon opacity="0.1" fill="#5F7CA0" points="579.373,245.488 595.789,244.074 589.701,287.221 582.719,276.219 573.959,257.455 	
		"/>
	<polygon opacity="0.09" fill="#5F7CA0" points="595.789,243.825 604.238,237.488 616.205,255.095 589.701,287.221 	"/>
	<polygon opacity="0.17" fill="#5F7CA0" points="616.205,255.095 627.172,281.849 589.701,287.221 	"/>
	<polygon opacity="0.22" fill="#5F7CA0" points="598.268,300.42 627.172,281.849 589.701,287.221 	"/>
	<polygon opacity="0.17" fill="#5F7CA0" points="602.477,319.162 627.172,281.849 598.268,300.42 	"/>
	<polygon opacity="0.16" fill="#5F7CA0" points="627.172,281.849 631.211,310.521 636.502,296.641 636.502,277.621 	"/>
	<polygon opacity="0.2" fill="#5F7CA0" points="631.211,310.521 602.477,319.162 627.172,281.849 	"/>
	<polygon opacity="0.25" fill="#5F7CA0" points="631.211,310.521 629.4,319.162 627.172,334.768 602.477,319.162 	"/>
	<polygon opacity="0.02" fill="#5F7CA0" points="542.988,247.738 538.748,232.504 538.748,228.341 550.715,226.919 	"/>
	<polygon opacity="0.07" fill="#5F7CA0" points="542.988,247.738 554.27,241.016 555.578,232.504 557.061,229.747 550.715,226.919 	
		"/>
	<polygon opacity="0.04" fill="#5F7CA0" points="550.715,226.919 543.695,220.587 563.92,217.686 	"/>
	<polygon opacity="0.07" fill="#5F7CA0" points="563.92,217.686 566.578,227.633 557.061,229.747 550.715,226.919 	"/>
	<polygon opacity="0.02" fill="#5F7CA0" points="563.92,217.686 562.695,204.389 556.369,208.518 543.695,220.587 	"/>
	<polygon opacity="0.07" fill="#5F7CA0" points="562.695,204.389 582.719,208.518 563.92,217.686 	"/>
	<polygon opacity="0.16" fill="#5F7CA0" points="563.92,217.686 576.062,223.546 579.373,233.971 566.578,227.633 	"/>
	<polygon opacity="0.14" fill="#5F7CA0" points="576.062,223.546 602.104,219.891 582.719,208.518 563.92,217.686 	"/>
	<polygon opacity="0.21" fill="#5F7CA0" points="602.104,219.891 591.578,237.488 576.062,223.546 	"/>
	<polygon opacity="0.14" fill="#5F7CA0" points="602.104,219.891 619.758,237.488 607.582,232.504 604.238,237.488 591.578,237.488 
			"/>
	<polygon opacity="0.09" fill="#5F7CA0" points="602.104,219.891 604.238,197.346 620.984,216.027 	"/>
	<polygon opacity="0.11" fill="#5F7CA0" points="620.984,216.027 626.412,237.324 619.758,237.488 602.104,219.891 	"/>
	<polygon opacity="0.21" fill="#5F7CA0" points="607.582,232.504 627.172,242.205 616.205,255.095 604.238,237.488 	"/>
	<polygon opacity="0.2" fill="#5F7CA0" points="627.172,242.205 631.002,278.332 634.707,265.646 635.863,247.738 	"/>
	<polygon opacity="0.31" fill="#5F7CA0" points="627.172,242.205 631.002,278.332 616.205,255.095 	"/>
	<polygon opacity="0.24" fill="#5F7CA0" points="582.719,208.518 604.238,197.346 602.104,219.891 	"/>
	<polygon opacity="0.07" fill="#5F7CA0" points="604.238,197.346 588.064,182.215 576.062,188.25 	"/>
	<polygon opacity="0.11" fill="#5F7CA0" points="576.062,188.25 582.719,208.518 604.238,197.346 	"/>
	<polygon opacity="0.15" fill="#5F7CA0" points="576.062,188.25 562.695,204.389 582.719,208.518 	"/>
	<polygon opacity="0.24" fill="#5F7CA0" points="576.062,188.25 554.27,182.215 558.645,192.127 	"/>
	<polygon opacity="0.24" fill="#5F7CA0" points="576.062,188.25 562.695,204.389 558.645,192.127 	"/>
	<polygon opacity="0.07" fill="#5F7CA0" points="576.062,188.25 558.645,169.393 552.127,171.306 559.887,177.635 554.27,182.215 	
		"/>
	<polygon opacity="0.02" fill="#5F7CA0" points="558.645,169.393 588.064,182.215 576.062,188.25 	"/>
	<polygon opacity="0.2" fill="#5F7CA0" points="558.645,192.127 552.836,187.493 557.061,200.871 552.127,208.518 545.094,183.139 
		554.27,182.215 	"/>
	<polygon opacity="0.25" fill="#5F7CA0" points="552.127,208.518 545.094,198.052 545.094,183.139 	"/>
	<path fill="#5F7CA0" d="M554.27,405.771"/>
	<path opacity="0.04" fill="#5F7CA0" d="M633.814,316.672c6.705-5.062-4.846,16.326-8.572,24.238
		c-29.797,63.393-105.367,90.637-168.781,60.84c-36.463-17.174-60.963-49.488-69.518-85.923
		C386.943,315.827,518.281,403.889,633.814,316.672z"/>
</g>
<path fill="#51687C" d="M511.725,152.579c-75.657,0-137.033,61.357-137.033,137.031c0,75.654,61.376,137.029,137.033,137.029
	c75.681,0,137.03-61.375,137.03-137.029C648.755,213.937,587.405,152.579,511.725,152.579z M511.725,417.505
	c-70.635,0-127.896-57.26-127.896-127.895c0-70.637,57.262-127.896,127.896-127.896c70.634,0,127.895,57.26,127.895,127.896
	C639.619,360.245,582.358,417.505,511.725,417.505z"/>
</svg>
